<svg width="269" height="260" viewBox="0 0 269 260" fill="none" xmlns="http://www.w3.org/2000/svg">
<path d="M105.662 153.871C132.288 185.602 153.871 211.325 153.871 211.325C122.141 237.95 74.8342 233.811 48.2091 202.081C48.2091 202.081 73.9318 180.497 105.662 153.871Z" fill="black" fill-opacity="0.4"/>
<path d="M105.662 153.871C137.393 127.246 163.116 105.662 163.116 105.662C189.741 137.393 185.602 184.7 153.871 211.325C153.871 211.325 132.288 185.602 105.662 153.871Z" fill="black" fill-opacity="0.6"/>
<path d="M163.116 105.662C131.385 132.287 105.662 153.871 105.662 153.871C79.0373 122.141 83.1761 74.8342 114.907 48.209C114.907 48.209 136.491 73.9318 163.116 105.662Z" fill="black" fill-opacity="0.8"/>
<path d="M163.116 105.662C136.491 73.9318 114.907 48.2091 114.907 48.2091C146.637 21.5839 193.944 25.7227 220.569 57.4533C220.569 57.4533 194.846 79.0373 163.116 105.662Z" fill="black"/>
</svg>
