<?xml version="1.0" encoding="UTF-8"?>
<!-- Generated by Pixelmator Pro 3.6.9 -->
<svg width="269" height="260" viewBox="0 0 269 260" xmlns="http://www.w3.org/2000/svg">
    <path id="path1" fill="#48b04a" fill-opacity="0.4" stroke="none" d="M 105.662003 153.871002 C 132.287994 185.602005 153.871002 211.324997 153.871002 211.324997 C 122.140999 237.949997 74.834198 233.811005 48.209099 202.080994 C 48.209099 202.080994 73.931801 180.496994 105.662003 153.871002 Z"/>
    <path id="path2" fill="#48b04a" fill-opacity="0.6" stroke="none" d="M 105.662003 153.871002 C 137.393005 127.246002 163.115997 105.662003 163.115997 105.662003 C 189.740997 137.393005 185.602005 184.699997 153.871002 211.324997 C 153.871002 211.324997 132.287994 185.602005 105.662003 153.871002 Z"/>
    <path id="path3" fill="#48b04a" fill-opacity="0.8" stroke="none" d="M 163.115997 105.662003 C 131.384995 132.287003 105.662003 153.871002 105.662003 153.871002 C 79.0373 122.140991 83.176102 74.834198 114.906998 48.209 C 114.906998 48.209 136.490997 73.931793 163.115997 105.662003 Z"/>
    <path id="path4" fill="#48b04a" stroke="none" d="M 163.115997 105.662003 C 136.490997 73.931793 114.906998 48.209106 114.906998 48.209106 C 146.636993 21.583893 193.944 25.722702 220.569 57.453308 C 220.569 57.453308 194.845993 79.037292 163.115997 105.662003 Z"/>
    <clipPath id="clipPath1">
        <path clip-rule="evenodd" d="M 0 260 L 269 260 L 269 0 L 0 0 Z"/>
    </clipPath>
    <g id="g1" clip-path="url(#clipPath1)">
        <linearGradient id="linearGradient1" x1="132.755518" y1="229.459841" x2="155.541741" y2="156.535966" gradientUnits="userSpaceOnUse">
            <stop offset="0" stop-color="#4a48b0" stop-opacity="1"/>
            <stop offset="1" stop-color="#b04a48" stop-opacity="1"/>
        </linearGradient>
        <path id="-" fill="url(#linearGradient1)" fill-rule="evenodd" stroke="none" d="M 106 208.5 C 106 219.821838 115.178162 229 126.5 229 L 200.5 229 C 211.821838 229 221 219.821838 221 208.5 C 221 197.178162 211.821838 188 200.5 188 L 126.5 188 C 115.178162 188 106 197.178162 106 208.5 Z"/>
        <path id="PLUS" fill="#ffffff" fill-rule="evenodd" stroke="none" d="M 192.751999 218.23999 C 191.712006 218.23999 190.764008 218.112 189.90799 217.856003 C 189.052002 217.600006 188.291992 217.223999 187.627991 216.727997 C 186.963989 216.231995 186.368011 215.632004 185.839996 214.928009 L 188.096008 212.360001 C 188.880005 213.447998 189.660004 214.187988 190.436005 214.580002 C 191.212006 214.972 192.056 215.167999 192.968002 215.167999 C 193.464005 215.167999 193.90799 215.096008 194.300003 214.951996 C 194.692001 214.807999 195 214.612 195.223999 214.363998 C 195.447998 214.115997 195.559998 213.81601 195.559998 213.464005 C 195.559998 213.208008 195.503998 212.972 195.391998 212.755997 C 195.279999 212.540009 195.119995 212.347992 194.912003 212.179993 C 194.70401 212.011993 194.455994 211.860001 194.167999 211.723999 C 193.880005 211.587997 193.559998 211.468002 193.208008 211.363998 C 192.855988 211.259995 192.472 211.175995 192.056 211.112 C 191.160004 210.903992 190.376007 210.652008 189.70401 210.356003 C 189.031998 210.059998 188.472 209.692001 188.024002 209.251999 C 187.575989 208.811996 187.244003 208.312012 187.028 207.751999 C 186.811996 207.192001 186.70401 206.559998 186.70401 205.856003 C 186.70401 205.135986 186.863998 204.468002 187.18399 203.85199 C 187.503998 203.235992 187.947998 202.70401 188.515991 202.255997 C 189.084 201.807999 189.73999 201.464005 190.484009 201.223999 C 191.227997 200.984009 192.015991 200.863998 192.847992 200.863998 C 193.872009 200.863998 194.768005 200.975998 195.536011 201.199997 C 196.304001 201.424011 196.972 201.755997 197.540009 202.195999 C 198.108002 202.636002 198.584 203.167999 198.968002 203.791992 L 196.688004 206 C 196.35199 205.552002 195.988007 205.175995 195.596008 204.872009 C 195.203995 204.567993 194.779999 204.339996 194.324005 204.188004 C 193.867996 204.035995 193.399994 203.959991 192.919998 203.959991 C 192.391998 203.959991 191.936005 204.028 191.552002 204.164001 C 191.167999 204.300003 190.868011 204.5 190.652008 204.764008 C 190.436005 205.028 190.328003 205.335999 190.328003 205.688004 C 190.328003 205.975998 190.399994 206.231995 190.544006 206.455994 C 190.688004 206.679993 190.895996 206.876007 191.167999 207.044006 C 191.440002 207.212006 191.768005 207.360001 192.152008 207.488007 C 192.536011 207.615997 192.959991 207.727997 193.424011 207.824005 C 194.304001 208 195.095993 208.231995 195.800003 208.520004 C 196.503998 208.807999 197.108002 209.156006 197.612 209.563995 C 198.115997 209.972 198.503998 210.451996 198.776001 211.003998 C 199.048004 211.556 199.18399 212.175995 199.18399 212.863998 C 199.18399 214 198.912003 214.967987 198.367996 215.768005 C 197.824005 216.568008 197.072006 217.179993 196.112 217.604004 C 195.151993 218.028 194.032013 218.23999 192.751999 218.23999 Z M 172.928009 218.143997 C 171.567993 218.143997 170.356003 217.860001 169.291992 217.291992 C 168.227997 216.723999 167.391998 215.940002 166.783997 214.940002 C 166.175995 213.940002 165.872009 212.808014 165.872009 211.544006 L 165.872009 201.175995 L 169.496002 201.175995 L 169.496002 211.328003 C 169.496002 212 169.647995 212.604004 169.951996 213.139999 C 170.255997 213.675995 170.667999 214.104004 171.188004 214.423996 C 171.708008 214.744003 172.287994 214.903992 172.928009 214.903992 C 173.584 214.903992 174.179993 214.744003 174.716003 214.423996 C 175.251999 214.104004 175.675995 213.675995 175.988007 213.139999 C 176.300003 212.604004 176.455994 212 176.455994 211.328003 L 176.455994 201.175995 L 179.959991 201.175995 L 179.959991 211.544006 C 179.959991 212.808014 179.660004 213.940002 179.059998 214.940002 C 178.459991 215.940002 177.624008 216.723999 176.552002 217.291992 C 175.479996 217.860001 174.272003 218.143997 172.928009 218.143997 Z M 148.591995 218 L 148.591995 201.199997 L 152.192001 201.199997 L 152.192001 214.76001 L 159.800003 214.76001 L 159.800003 218 Z M 129.559998 218 L 129.559998 201.199997 L 136.688004 201.199997 C 137.695999 201.199997 138.599991 201.436005 139.399994 201.908005 C 140.200012 202.380005 140.835999 203.023987 141.307999 203.839996 C 141.779999 204.656006 142.016006 205.575989 142.016006 206.600006 C 142.016006 207.640015 141.779999 208.575989 141.307999 209.408005 C 140.835999 210.240005 140.200012 210.899994 139.399994 211.388 C 138.599991 211.876007 137.695999 212.119995 136.688004 212.119995 L 133.160004 212.119995 L 133.160004 218 Z M 133.112 208.880005 L 136.279999 208.880005 C 136.664001 208.880005 137.007996 208.779999 137.311996 208.580002 C 137.615997 208.380005 137.860001 208.112 138.044006 207.776001 C 138.227997 207.440002 138.320007 207.056 138.320007 206.623993 C 138.320007 206.192001 138.227997 205.81601 138.044006 205.496002 C 137.860001 205.175995 137.615997 204.919998 137.311996 204.727997 C 137.007996 204.535995 136.664001 204.440002 136.279999 204.440002 L 133.112 204.440002 Z"/>
    </g>
</svg>
