<?xml version="1.0" encoding="UTF-8"?>
<!-- Generated by Pixelmator Pro 3.6.9 -->
<svg width="269" height="260" viewBox="0 0 269 260" xmlns="http://www.w3.org/2000/svg">
    <path id="path1" fill="#48b04a" fill-opacity="0.4" stroke="none" d="M 105.662003 153.871002 C 132.287994 185.602005 153.871002 211.324997 153.871002 211.324997 C 122.140999 237.949997 74.834198 233.811005 48.209099 202.080994 C 48.209099 202.080994 73.931801 180.496994 105.662003 153.871002 Z"/>
    <path id="path2" fill="#48b04a" fill-opacity="0.6" stroke="none" d="M 105.662003 153.871002 C 137.393005 127.246002 163.115997 105.662003 163.115997 105.662003 C 189.740997 137.393005 185.602005 184.699997 153.871002 211.324997 C 153.871002 211.324997 132.287994 185.602005 105.662003 153.871002 Z"/>
    <path id="path3" fill="#48b04a" fill-opacity="0.8" stroke="none" d="M 163.115997 105.662003 C 131.384995 132.287003 105.662003 153.871002 105.662003 153.871002 C 79.0373 122.140991 83.176102 74.834198 114.906998 48.209 C 114.906998 48.209 136.490997 73.931793 163.115997 105.662003 Z"/>
    <path id="path4" fill="#48b04a" stroke="none" d="M 163.115997 105.662003 C 136.490997 73.931793 114.906998 48.209106 114.906998 48.209106 C 146.636993 21.583893 193.944 25.722702 220.569 57.453308 C 220.569 57.453308 194.845993 79.037292 163.115997 105.662003 Z"/>
    <clipPath id="clipPath1">
        <path clip-rule="evenodd" d="M -44.243477 272.939131 L 337.034782 272.939131 L 337.034782 -95.582598 L -44.243477 -95.582598 Z"/>
    </clipPath>
    <g id="g1" clip-path="url(#clipPath1)">
        <linearGradient id="linearGradient1" x1="143.923038" y1="229.651774" x2="176.220033" y2="126.290109" gradientUnits="userSpaceOnUse">
            <stop offset="0" stop-color="#4a48b0" stop-opacity="1"/>
            <stop offset="1" stop-color="#b04a48" stop-opacity="1"/>
        </linearGradient>
        <path id="path5" fill="url(#linearGradient1)" fill-rule="evenodd" stroke="none" d="M 106 199.943481 C 106 215.990952 119.009048 229 135.056519 229 L 239.943481 229 C 255.990952 229 269 215.990952 269 199.943481 C 269 183.895996 255.990952 170.886963 239.943481 170.886963 L 135.056519 170.886963 C 119.009048 170.886963 106 183.895996 106 199.943481 Z"/>
        <path id="PLUS" fill="#ffffff" fill-rule="evenodd" stroke="none" d="M 228.961533 213.748871 C 227.487457 213.748871 226.143768 213.567444 224.93045 213.20459 C 223.717178 212.841736 222.639954 212.308807 221.698807 211.605774 C 220.75766 210.90274 219.912918 210.052322 219.16452 209.054474 L 222.362167 205.414612 C 223.473404 206.956741 224.578964 208.005585 225.678864 208.561218 C 226.778763 209.116837 227.975021 209.394638 229.267685 209.394638 C 229.970718 209.394638 230.600021 209.292587 231.155655 209.088486 C 231.711273 208.884384 232.147827 208.606567 232.465317 208.255066 C 232.782822 207.903549 232.941559 207.478333 232.941559 206.979401 C 232.941559 206.616562 232.862183 206.282043 232.703445 205.975891 C 232.544693 205.669739 232.317902 205.397598 232.023102 205.159485 C 231.728287 204.921356 231.376755 204.705917 230.968552 204.513153 C 230.560349 204.320374 230.106781 204.150299 229.607864 204.002884 C 229.108917 203.855469 228.564667 203.73642 227.975021 203.645706 C 226.705048 203.350891 225.593826 202.993713 224.641342 202.574158 C 223.688828 202.154602 222.895096 201.633011 222.260101 201.009354 C 221.625092 200.385696 221.154541 199.677017 220.848389 198.88327 C 220.542221 198.089523 220.38916 197.193741 220.38916 196.195892 C 220.38916 195.175354 220.615921 194.228561 221.069489 193.355438 C 221.523056 192.48233 222.152374 191.728271 222.957443 191.093292 C 223.762543 190.458282 224.692337 189.970703 225.746902 189.630539 C 226.801422 189.290375 227.91832 189.12027 229.097595 189.12027 C 230.549026 189.12027 231.819 189.279022 232.907562 189.596527 C 233.996109 189.914032 234.942917 190.384583 235.748016 191.00824 C 236.553085 191.631897 237.227753 192.385956 237.772034 193.270401 L 234.54039 196.399994 C 234.064117 195.765015 233.548218 195.232071 232.992599 194.801178 C 232.436966 194.3703 231.835999 194.047134 231.189682 193.831696 C 230.543335 193.616241 229.87999 193.508514 229.199646 193.508514 C 228.451263 193.508514 227.804947 193.604904 227.260666 193.797668 C 226.716385 193.990448 226.291183 194.273911 225.985016 194.648102 C 225.678864 195.022293 225.525772 195.458847 225.525772 195.957764 C 225.525772 196.365982 225.627823 196.728836 225.83194 197.046326 C 226.036041 197.363831 226.330841 197.641632 226.716385 197.879761 C 227.101913 198.117874 227.566818 198.327652 228.111115 198.509079 C 228.655396 198.690506 229.256332 198.849243 229.914032 198.985321 C 231.161316 199.234787 232.28389 199.563614 233.281738 199.971832 C 234.279587 200.380035 235.135696 200.873291 235.850052 201.451584 C 236.564407 202.029877 237.114365 202.71022 237.499893 203.492615 C 237.885437 204.275024 238.078171 205.153809 238.078171 206.128967 C 238.078171 207.739136 237.692657 209.11116 236.9216 210.245071 C 236.150543 211.378998 235.084671 212.246429 233.723969 212.847412 C 232.363266 213.448395 230.775803 213.748871 228.961533 213.748871 Z M 200.863174 213.612793 C 198.935501 213.612793 197.217636 213.210266 195.709518 212.405182 C 194.201416 211.600098 193.016479 210.488876 192.154709 209.071472 C 191.292938 207.654083 190.862061 206.049606 190.862061 204.258011 L 190.862061 189.5625 L 195.998688 189.5625 L 195.998688 203.951859 C 195.998688 204.904358 196.214111 205.760452 196.645004 206.520172 C 197.075897 207.279907 197.659866 207.886536 198.396912 208.340103 C 199.133957 208.793671 199.956024 209.020447 200.863174 209.020447 C 201.792969 209.020447 202.637726 208.793671 203.397461 208.340103 C 204.157181 207.886536 204.758148 207.279907 205.200394 206.520172 C 205.642609 205.760452 205.863708 204.904358 205.863708 203.951859 L 205.863708 189.5625 L 210.830246 189.5625 L 210.830246 204.258011 C 210.830246 206.049606 210.405045 207.654083 209.554611 209.071472 C 208.704163 210.488876 207.519241 211.600098 205.999802 212.405182 C 204.480347 213.210266 202.768143 213.612793 200.863174 213.612793 Z M 166.369522 213.408691 L 166.369522 189.596527 L 171.472137 189.596527 L 171.472137 208.816345 L 182.255661 208.816345 L 182.255661 213.408691 Z M 139.393738 213.408691 L 139.393738 189.596527 L 149.496902 189.596527 C 150.925629 189.596527 152.20694 189.93103 153.340866 190.600037 C 154.474792 191.269043 155.376236 192.181839 156.045258 193.33844 C 156.714264 194.495026 157.048767 195.799011 157.048767 197.250427 C 157.048767 198.724533 156.714264 200.051193 156.045258 201.230469 C 155.376236 202.409744 154.474792 203.345215 153.340866 204.036896 C 152.20694 204.728592 150.925629 205.074432 149.496902 205.074432 L 144.496353 205.074432 L 144.496353 213.408691 Z M 144.428314 200.482086 L 148.91861 200.482086 C 149.462891 200.482086 149.95047 200.340347 150.381348 200.05687 C 150.812241 199.773392 151.158081 199.393524 151.4189 198.917297 C 151.679688 198.44104 151.810104 197.896759 151.810104 197.284454 C 151.810104 196.672134 151.679688 196.139206 151.4189 195.685638 C 151.158081 195.232071 150.812241 194.869217 150.381348 194.597076 C 149.95047 194.324936 149.462891 194.188873 148.91861 194.188873 L 144.428314 194.188873 Z"/>
    </g>
</svg>
