<?xml version="1.0" encoding="UTF-8"?>
<!-- Generated by Pixelmator Pro 3.6.9 -->
<svg width="269" height="260" viewBox="0 0 269 260" xmlns="http://www.w3.org/2000/svg">
    <path id="path1" fill="#48b04a" fill-opacity="0.4" stroke="none" d="M 105.662003 153.871002 C 132.287994 185.602005 153.871002 211.324997 153.871002 211.324997 C 122.140999 237.949997 74.834198 233.811005 48.209099 202.080994 C 48.209099 202.080994 73.931801 180.496994 105.662003 153.871002 Z"/>
    <path id="path2" fill="#48b04a" fill-opacity="0.6" stroke="none" d="M 105.662003 153.871002 C 137.393005 127.246002 163.115997 105.662003 163.115997 105.662003 C 189.740997 137.393005 185.602005 184.699997 153.871002 211.324997 C 153.871002 211.324997 132.287994 185.602005 105.662003 153.871002 Z"/>
    <path id="path3" fill="#48b04a" fill-opacity="0.8" stroke="none" d="M 163.115997 105.662003 C 131.384995 132.287003 105.662003 153.871002 105.662003 153.871002 C 79.0373 122.140991 83.176102 74.834198 114.906998 48.209 C 114.906998 48.209 136.490997 73.931793 163.115997 105.662003 Z"/>
    <path id="path4" fill="#48b04a" stroke="none" d="M 163.115997 105.662003 C 136.490997 73.931793 114.906998 48.209106 114.906998 48.209106 C 146.636993 21.583893 193.944 25.722702 220.569 57.453308 C 220.569 57.453308 194.845993 79.037292 163.115997 105.662003 Z"/>
    <clipPath id="clipPath1">
        <path clip-rule="evenodd" d="M 0 260 L 269 260 L 269 0 L 0 0 Z"/>
    </clipPath>
    <g id="g1" clip-path="url(#clipPath1)">
        <linearGradient id="linearGradient1" x1="132.755518" y1="229.459841" x2="155.541741" y2="156.535966" gradientUnits="userSpaceOnUse">
            <stop offset="0" stop-color="#4a48b0" stop-opacity="1"/>
            <stop offset="1" stop-color="#b04a48" stop-opacity="1"/>
        </linearGradient>
        <path id="-" fill="url(#linearGradient1)" fill-rule="evenodd" stroke="none" d="M 106 208.5 C 106 219.821838 115.178162 229 126.5 229 L 200.5 229 C 211.821838 229 221 219.821838 221 208.5 C 221 197.178162 211.821838 188 200.5 188 L 126.5 188 C 115.178162 188 106 197.178162 106 208.5 Z"/>
        <text id="PLUS" xml:space="preserve" x="125.376" y="220" font-family="Lexend" font-size="24" font-weight="600" fill="#ffffff" letter-spacing="3.36">PLUS</text>
    </g>
</svg>
