<?xml version="1.0" encoding="UTF-8"?>
<!-- Generated by Pixelmator Pro 3.6.9 -->
<svg width="115" height="41" viewBox="0 0 115 41" xmlns="http://www.w3.org/2000/svg">
    <g id="-">
        <linearGradient id="linearGradient1" x1="25.755518" y1="41.459841" x2="48.541741" y2="-31.464034" gradientUnits="userSpaceOnUse">
            <stop offset="0" stop-color="#4a48b0" stop-opacity="1"/>
            <stop offset="1" stop-color="#b04a48" stop-opacity="1"/>
        </linearGradient>
        <path id="path1" fill="url(#linearGradient1)" fill-rule="evenodd" stroke="none" d="M -1 20.5 C -1 31.821838 8.178163 41 19.5 41 L 93.5 41 C 104.821838 41 114 31.821838 114 20.5 C 114 9.178164 104.821838 0 93.5 0 L 19.5 0 C 8.178163 0 -1 9.178164 -1 20.5 Z"/>
        <path id="PLUS" fill="#ffffff" fill-rule="evenodd" stroke="none" d="M 85.751999 30.24 C 84.711998 30.24 83.764008 30.112001 82.907997 29.855999 C 82.051994 29.599998 81.292 29.224003 80.627998 28.728001 C 79.963997 28.231998 79.368004 27.632004 78.839996 26.928001 L 81.096001 24.360001 C 81.880005 25.448006 82.659996 26.187998 83.435997 26.58 C 84.212006 26.972002 85.055992 27.167999 85.968002 27.167999 C 86.464005 27.167999 86.907997 27.096001 87.300003 26.952 C 87.692001 26.807999 88 26.612001 88.223999 26.364 C 88.447998 26.115999 88.559998 25.816002 88.559998 25.464001 C 88.559998 25.207998 88.503998 24.972 88.391998 24.756001 C 88.279999 24.539999 88.120003 24.348 87.912003 24.18 C 87.704002 24.011999 87.456001 23.860001 87.167999 23.723999 C 86.879997 23.587999 86.560005 23.468 86.208 23.364 C 85.855995 23.259998 85.472 23.176001 85.056 23.112 C 84.159996 22.903999 83.376007 22.652 82.704002 22.355999 C 82.031998 22.059998 81.472 21.692001 81.024002 21.251999 C 80.575996 20.811996 80.244003 20.312004 80.028 19.752001 C 79.811996 19.191998 79.704002 18.560003 79.704002 17.856001 C 79.704002 17.135996 79.863998 16.468002 80.183998 15.851999 C 80.503998 15.235996 80.947998 14.704002 81.515999 14.256001 C 82.084 13.807999 82.739998 13.464001 83.484001 13.224001 C 84.228004 12.983999 85.015999 12.864 85.848 12.864 C 86.872002 12.864 87.767998 12.976 88.536003 13.200001 C 89.304001 13.424002 89.972 13.755999 90.540001 14.195999 C 91.108002 14.636002 91.584 15.167997 91.968002 15.792 L 89.688004 18 C 89.351997 17.551998 88.987999 17.176001 88.596001 16.872 C 88.203995 16.567999 87.779999 16.34 87.323997 16.188 C 86.867996 16.035999 86.400002 15.959999 85.919998 15.959999 C 85.391998 15.959999 84.936005 16.028 84.552002 16.164 C 84.167999 16.300001 83.868004 16.499998 83.652 16.764 C 83.435997 17.028002 83.328003 17.335999 83.328003 17.688 C 83.328003 17.976002 83.400002 18.231998 83.543999 18.455999 C 83.688004 18.68 83.895996 18.875999 84.167999 19.044001 C 84.440002 19.212 84.767998 19.359999 85.152 19.488001 C 85.536003 19.616001 85.959999 19.727999 86.424004 19.823999 C 87.304001 20 88.095993 20.231998 88.800003 20.52 C 89.504005 20.808002 90.107994 21.155998 90.612 21.563999 C 91.116005 21.972002 91.503998 22.451996 91.776001 23.004 C 92.048004 23.556004 92.183998 24.175997 92.183998 24.864 C 92.183998 26.000006 91.912003 26.967995 91.367996 27.768 C 90.823997 28.568005 90.072006 29.179998 89.112 29.604 C 88.151993 30.028002 87.032005 30.24 85.751999 30.24 Z M 65.928001 30.144001 C 64.567993 30.144001 63.356007 29.860003 62.292 29.292 C 61.227993 28.723997 60.392002 27.940006 59.784 26.939999 C 59.175999 25.939995 58.872002 24.808006 58.872002 23.543999 L 58.872002 13.176001 L 62.495998 13.176001 L 62.495998 23.327999 C 62.495998 24.000004 62.647999 24.603996 62.952 25.139999 C 63.256001 25.676003 63.667999 26.103998 64.188004 26.424 C 64.708008 26.744001 65.287994 26.903999 65.928001 26.903999 C 66.584 26.903999 67.179993 26.744001 67.716003 26.424 C 68.251999 26.103998 68.675995 25.676003 68.987999 25.139999 C 69.300003 24.603996 69.456001 24.000004 69.456001 23.327999 L 69.456001 13.176001 L 72.959999 13.176001 L 72.959999 23.543999 C 72.959999 24.808006 72.660004 25.939995 72.059998 26.939999 C 71.459999 27.940006 70.624008 28.723997 69.552002 29.292 C 68.479996 29.860003 67.272003 30.144001 65.928001 30.144001 Z M 41.591999 30 L 41.591999 13.200001 L 45.192001 13.200001 L 45.192001 26.76 L 52.799999 26.76 L 52.799999 30 Z M 22.559999 30 L 22.559999 13.200001 L 29.688 13.200001 C 30.696005 13.200001 31.599997 13.435997 32.400002 13.908001 C 33.200005 14.380003 33.835999 15.023996 34.307999 15.84 C 34.780003 16.656004 35.015999 17.575994 35.015999 18.6 C 35.015999 19.640005 34.780003 20.575996 34.307999 21.408001 C 33.835999 22.240005 33.200005 22.899998 32.400002 23.388 C 31.599997 23.876003 30.696005 24.119999 29.688 24.119999 L 26.16 24.119999 L 26.16 30 Z M 26.112 20.880001 L 29.280001 20.880001 C 29.664001 20.880001 30.007999 20.780001 30.312 20.58 C 30.616001 20.379999 30.859999 20.112001 31.044001 19.775999 C 31.228001 19.439999 31.32 19.056002 31.32 18.624001 C 31.32 18.191998 31.228001 17.816002 31.044001 17.496 C 30.859999 17.175999 30.616001 16.92 30.312 16.728001 C 30.007999 16.535999 29.664001 16.440001 29.280001 16.440001 L 26.112 16.440001 Z"/>
    </g>
</svg>
