<?xml version="1.0" encoding="UTF-8"?>
<!-- Generated by Pixelmator Pro 3.6.9 -->
<svg width="115" height="41" viewBox="0 0 115 41" xmlns="http://www.w3.org/2000/svg">
    <g id="-">
        <linearGradient id="linearGradient1" x1="26.755518" y1="41.459841" x2="49.541741" y2="-31.464034" gradientUnits="userSpaceOnUse">
            <stop offset="0" stop-color="#4a48b0" stop-opacity="1"/>
            <stop offset="1" stop-color="#b04a48" stop-opacity="1"/>
        </linearGradient>
        <path id="path1" fill="url(#linearGradient1)" fill-rule="evenodd" stroke="none" d="M 0 20.5 C -0 31.821838 9.178163 41 20.5 41 L 94.5 41 C 105.821838 41 115 31.821838 115 20.5 C 115 9.178164 105.821838 0 94.5 0 L 20.5 0 C 9.178163 0 0 9.178164 0 20.5 Z"/>
        <path id="PLUS" fill="#ffffff" fill-rule="evenodd" stroke="none" d="M 86.751999 30.24 C 85.711998 30.24 84.764008 30.112001 83.907997 29.855999 C 83.051994 29.599998 82.292 29.224003 81.627998 28.728001 C 80.963997 28.231998 80.368004 27.632004 79.839996 26.928001 L 82.096001 24.360001 C 82.880005 25.448006 83.659996 26.187998 84.435997 26.58 C 85.212006 26.972002 86.055992 27.167999 86.968002 27.167999 C 87.464005 27.167999 87.907997 27.096001 88.300003 26.952 C 88.692001 26.807999 89 26.612001 89.223999 26.364 C 89.447998 26.115999 89.559998 25.816002 89.559998 25.464001 C 89.559998 25.207998 89.503998 24.972 89.391998 24.756001 C 89.279999 24.539999 89.120003 24.348 88.912003 24.18 C 88.704002 24.011999 88.456001 23.860001 88.167999 23.723999 C 87.879997 23.587999 87.560005 23.468 87.208 23.364 C 86.855995 23.259998 86.472 23.176001 86.056 23.112 C 85.159996 22.903999 84.376007 22.652 83.704002 22.355999 C 83.031998 22.059998 82.472 21.692001 82.024002 21.251999 C 81.575996 20.811996 81.244003 20.312004 81.028 19.752001 C 80.811996 19.191998 80.704002 18.560003 80.704002 17.856001 C 80.704002 17.135996 80.863998 16.468002 81.183998 15.851999 C 81.503998 15.235996 81.947998 14.704002 82.515999 14.256001 C 83.084 13.807999 83.739998 13.464001 84.484001 13.224001 C 85.228004 12.983999 86.015999 12.864 86.848 12.864 C 87.872002 12.864 88.767998 12.976 89.536003 13.200001 C 90.304001 13.424002 90.972 13.755999 91.540001 14.195999 C 92.108002 14.636002 92.584 15.167997 92.968002 15.792 L 90.688004 18 C 90.351997 17.551998 89.987999 17.176001 89.596001 16.872 C 89.203995 16.567999 88.779999 16.34 88.323997 16.188 C 87.867996 16.035999 87.400002 15.959999 86.919998 15.959999 C 86.391998 15.959999 85.936005 16.028 85.552002 16.164 C 85.167999 16.300001 84.868004 16.499998 84.652 16.764 C 84.435997 17.028002 84.328003 17.335999 84.328003 17.688 C 84.328003 17.976002 84.400002 18.231998 84.543999 18.455999 C 84.688004 18.68 84.895996 18.875999 85.167999 19.044001 C 85.440002 19.212 85.767998 19.359999 86.152 19.488001 C 86.536003 19.616001 86.959999 19.727999 87.424004 19.823999 C 88.304001 20 89.095993 20.231998 89.800003 20.52 C 90.504005 20.808002 91.107994 21.155998 91.612 21.563999 C 92.116005 21.972002 92.503998 22.451996 92.776001 23.004 C 93.048004 23.556004 93.183998 24.175997 93.183998 24.864 C 93.183998 26.000006 92.912003 26.967995 92.367996 27.768 C 91.823997 28.568005 91.072006 29.179998 90.112 29.604 C 89.151993 30.028002 88.032005 30.24 86.751999 30.24 Z M 66.928001 30.144001 C 65.567993 30.144001 64.356003 29.860003 63.292 29.292 C 62.227993 28.723997 61.392002 27.940006 60.784 26.939999 C 60.175999 25.939995 59.872002 24.808006 59.872002 23.543999 L 59.872002 13.176001 L 63.495998 13.176001 L 63.495998 23.327999 C 63.495998 24.000004 63.647999 24.603996 63.952 25.139999 C 64.255997 25.676003 64.667999 26.103998 65.188004 26.424 C 65.708008 26.744001 66.287994 26.903999 66.928001 26.903999 C 67.584 26.903999 68.179993 26.744001 68.716003 26.424 C 69.251999 26.103998 69.675995 25.676003 69.987999 25.139999 C 70.300003 24.603996 70.456001 24.000004 70.456001 23.327999 L 70.456001 13.176001 L 73.959999 13.176001 L 73.959999 23.543999 C 73.959999 24.808006 73.660004 25.939995 73.059998 26.939999 C 72.459999 27.940006 71.624008 28.723997 70.552002 29.292 C 69.479996 29.860003 68.272003 30.144001 66.928001 30.144001 Z M 42.591999 30 L 42.591999 13.200001 L 46.192001 13.200001 L 46.192001 26.76 L 53.799999 26.76 L 53.799999 30 Z M 23.559999 30 L 23.559999 13.200001 L 30.688 13.200001 C 31.696005 13.200001 32.599995 13.435997 33.400002 13.908001 C 34.200005 14.380003 34.835999 15.023996 35.307999 15.84 C 35.780003 16.656004 36.015999 17.575994 36.015999 18.6 C 36.015999 19.640005 35.780003 20.575996 35.307999 21.408001 C 34.835999 22.240005 34.200005 22.899998 33.400002 23.388 C 32.599995 23.876003 31.696005 24.119999 30.688 24.119999 L 27.16 24.119999 L 27.16 30 Z M 27.112 20.880001 L 30.280001 20.880001 C 30.664001 20.880001 31.007999 20.780001 31.312 20.58 C 31.616001 20.379999 31.859999 20.112001 32.043999 19.775999 C 32.228001 19.439999 32.32 19.056002 32.32 18.624001 C 32.32 18.191998 32.228001 17.816002 32.043999 17.496 C 31.859999 17.175999 31.616001 16.92 31.312 16.728001 C 31.007999 16.535999 30.664001 16.440001 30.280001 16.440001 L 27.112 16.440001 Z"/>
    </g>
</svg>
